# xmcd
#
# Track frame offsets:
# 150
# 22952
# 47401
# 70553
# 93508
# 113867
# 134802
# 161304
# 181821
# 215341
#
# Disc length: 3196 seconds
#
#
# Revision: 0
# Processed by: cddbd v1.5.2PL0 Copyright (c) Steve Scherf et al.
# Submitted via: FreeRIP 2.96 
#
DISCID=7d0c7a0a
DTITLE=Chris Duarte - Tailspin Headwhack
DYEAR=1997
DGENRE=Blues
TTITLE0=Cleopatra
TTITLE1=Crimino
TTITLE2=The Thrill Is Gone
TTITLE3=Drivin' South
TTITLE4=Catch The Next Line
TTITLE5=Tailspin Headwhack
TTITLE6=People Say
TTITLE7=Crazy
TTITLE8=32 Blues
TTITLE9=Walls
EXTD=
EXTT0=
EXTT1=
EXTT2=
EXTT3=
EXTT4=
EXTT5=
EXTT6=
EXTT7=
EXTT8=
EXTT9=
PLAYORDER=
